<mxfile host="app.diagrams.net" agent="Mozilla/5.0 (Windows NT 10.0; Win64; x64) AppleWebKit/537.36 (KHTML, like Gecko) Chrome/134.0.0.0 Safari/537.36" version="26.1.3">
  <diagram name="Page-1" id="DHYnSEQ9mtDj2BaQpn-T">
    <mxGraphModel dx="794" dy="507" grid="1" gridSize="10" guides="1" tooltips="1" connect="1" arrows="1" fold="1" page="1" pageScale="1" pageWidth="850" pageHeight="1100" math="0" shadow="0">
      <root>
        <mxCell id="0" />
        <mxCell id="1" parent="0" />
        <mxCell id="TH7Lw-g1NXx3YXlk2tH6-7" value="&lt;span style=&quot;color: rgb(0, 0, 0); font-family: Helvetica; font-size: 12px; font-style: normal; font-variant-ligatures: normal; font-variant-caps: normal; font-weight: 400; letter-spacing: normal; orphans: 2; text-align: center; text-indent: 0px; text-transform: none; widows: 2; word-spacing: 0px; -webkit-text-stroke-width: 0px; white-space: normal; background-color: rgb(251, 251, 251); text-decoration-thickness: initial; text-decoration-style: initial; text-decoration-color: initial; float: none; display: inline !important;&quot;&gt;Source Data&lt;/span&gt;" style="rounded=0;whiteSpace=wrap;html=1;labelPosition=center;verticalLabelPosition=top;align=center;verticalAlign=bottom;" vertex="1" parent="1">
          <mxGeometry x="120" y="160" width="120" height="360" as="geometry" />
        </mxCell>
        <mxCell id="TH7Lw-g1NXx3YXlk2tH6-17" style="edgeStyle=orthogonalEdgeStyle;rounded=0;orthogonalLoop=1;jettySize=auto;html=1;" edge="1" parent="1" source="TH7Lw-g1NXx3YXlk2tH6-3">
          <mxGeometry relative="1" as="geometry">
            <mxPoint x="260" y="340" as="targetPoint" />
          </mxGeometry>
        </mxCell>
        <mxCell id="TH7Lw-g1NXx3YXlk2tH6-3" value="" style="shape=datastore;whiteSpace=wrap;html=1;" vertex="1" parent="1">
          <mxGeometry x="140" y="310" width="70" height="60" as="geometry" />
        </mxCell>
        <mxCell id="TH7Lw-g1NXx3YXlk2tH6-19" style="edgeStyle=orthogonalEdgeStyle;rounded=0;orthogonalLoop=1;jettySize=auto;html=1;entryX=0;entryY=0.5;entryDx=0;entryDy=0;" edge="1" parent="1" source="TH7Lw-g1NXx3YXlk2tH6-5" target="TH7Lw-g1NXx3YXlk2tH6-6">
          <mxGeometry relative="1" as="geometry">
            <Array as="points">
              <mxPoint x="250" y="415" />
              <mxPoint x="250" y="340" />
            </Array>
          </mxGeometry>
        </mxCell>
        <mxCell id="TH7Lw-g1NXx3YXlk2tH6-5" value="" style="verticalLabelPosition=bottom;html=1;verticalAlign=top;align=center;strokeColor=none;fillColor=#00BEF2;shape=mxgraph.azure.cloud_services_configuration_file;pointerEvents=1;" vertex="1" parent="1">
          <mxGeometry x="146.25" y="390" width="47.5" height="50" as="geometry" />
        </mxCell>
        <mxCell id="TH7Lw-g1NXx3YXlk2tH6-6" value="Processing Layer" style="whiteSpace=wrap;html=1;aspect=fixed;align=center;labelPosition=center;verticalLabelPosition=top;verticalAlign=bottom;" vertex="1" parent="1">
          <mxGeometry x="264" y="160" width="360" height="360" as="geometry" />
        </mxCell>
        <mxCell id="TH7Lw-g1NXx3YXlk2tH6-9" value="Consumption layer" style="rounded=0;whiteSpace=wrap;html=1;labelPosition=center;verticalLabelPosition=top;align=center;verticalAlign=bottom;" vertex="1" parent="1">
          <mxGeometry x="670" y="160" width="120" height="360" as="geometry" />
        </mxCell>
        <mxCell id="TH7Lw-g1NXx3YXlk2tH6-16" value="" style="edgeStyle=orthogonalEdgeStyle;rounded=0;orthogonalLoop=1;jettySize=auto;html=1;" edge="1" parent="1" source="TH7Lw-g1NXx3YXlk2tH6-10" target="TH7Lw-g1NXx3YXlk2tH6-6">
          <mxGeometry relative="1" as="geometry">
            <Array as="points">
              <mxPoint x="250" y="240" />
              <mxPoint x="250" y="340" />
            </Array>
          </mxGeometry>
        </mxCell>
        <mxCell id="TH7Lw-g1NXx3YXlk2tH6-10" value="" style="verticalLabelPosition=bottom;aspect=fixed;html=1;shape=mxgraph.salesforce.iot;" vertex="1" parent="1">
          <mxGeometry x="140" y="210" width="60" height="60" as="geometry" />
        </mxCell>
        <mxCell id="TH7Lw-g1NXx3YXlk2tH6-15" value="ADLS, S3" style="rounded=0;whiteSpace=wrap;html=1;imageVerticalAlign=bottom;labelPosition=center;verticalLabelPosition=middle;align=center;verticalAlign=middle;" vertex="1" parent="1">
          <mxGeometry x="270" y="540" width="360" height="60" as="geometry" />
        </mxCell>
        <mxCell id="TH7Lw-g1NXx3YXlk2tH6-36" style="edgeStyle=orthogonalEdgeStyle;rounded=0;orthogonalLoop=1;jettySize=auto;html=1;" edge="1" parent="1" source="TH7Lw-g1NXx3YXlk2tH6-20" target="TH7Lw-g1NXx3YXlk2tH6-15">
          <mxGeometry relative="1" as="geometry" />
        </mxCell>
        <mxCell id="TH7Lw-g1NXx3YXlk2tH6-20" value="Gold" style="rounded=0;whiteSpace=wrap;html=1;" vertex="1" parent="1">
          <mxGeometry x="510" y="320" width="90" height="60" as="geometry" />
        </mxCell>
        <mxCell id="TH7Lw-g1NXx3YXlk2tH6-35" style="edgeStyle=orthogonalEdgeStyle;rounded=0;orthogonalLoop=1;jettySize=auto;html=1;entryX=0.5;entryY=0;entryDx=0;entryDy=0;" edge="1" parent="1" source="TH7Lw-g1NXx3YXlk2tH6-21" target="TH7Lw-g1NXx3YXlk2tH6-15">
          <mxGeometry relative="1" as="geometry" />
        </mxCell>
        <mxCell id="TH7Lw-g1NXx3YXlk2tH6-47" style="edgeStyle=orthogonalEdgeStyle;rounded=0;orthogonalLoop=1;jettySize=auto;html=1;entryX=0;entryY=0.5;entryDx=0;entryDy=0;" edge="1" parent="1" source="TH7Lw-g1NXx3YXlk2tH6-21" target="TH7Lw-g1NXx3YXlk2tH6-20">
          <mxGeometry relative="1" as="geometry" />
        </mxCell>
        <mxCell id="TH7Lw-g1NXx3YXlk2tH6-21" value="Silver" style="rounded=0;whiteSpace=wrap;html=1;" vertex="1" parent="1">
          <mxGeometry x="390" y="320" width="90" height="60" as="geometry" />
        </mxCell>
        <mxCell id="TH7Lw-g1NXx3YXlk2tH6-39" style="edgeStyle=orthogonalEdgeStyle;rounded=0;orthogonalLoop=1;jettySize=auto;html=1;" edge="1" parent="1" source="TH7Lw-g1NXx3YXlk2tH6-22">
          <mxGeometry relative="1" as="geometry">
            <mxPoint x="260" y="350" as="targetPoint" />
          </mxGeometry>
        </mxCell>
        <mxCell id="TH7Lw-g1NXx3YXlk2tH6-44" style="edgeStyle=orthogonalEdgeStyle;rounded=0;orthogonalLoop=1;jettySize=auto;html=1;entryX=0;entryY=0.5;entryDx=0;entryDy=0;" edge="1" parent="1" source="TH7Lw-g1NXx3YXlk2tH6-22" target="TH7Lw-g1NXx3YXlk2tH6-21">
          <mxGeometry relative="1" as="geometry" />
        </mxCell>
        <mxCell id="TH7Lw-g1NXx3YXlk2tH6-22" value="Bronze" style="rounded=0;whiteSpace=wrap;html=1;" vertex="1" parent="1">
          <mxGeometry x="300" y="320" width="70" height="60" as="geometry" />
        </mxCell>
        <mxCell id="TH7Lw-g1NXx3YXlk2tH6-24" style="edgeStyle=orthogonalEdgeStyle;rounded=0;orthogonalLoop=1;jettySize=auto;html=1;" edge="1" parent="1" source="TH7Lw-g1NXx3YXlk2tH6-22" target="TH7Lw-g1NXx3YXlk2tH6-15">
          <mxGeometry relative="1" as="geometry">
            <mxPoint x="340" y="530" as="targetPoint" />
          </mxGeometry>
        </mxCell>
        <mxCell id="TH7Lw-g1NXx3YXlk2tH6-38" style="edgeStyle=orthogonalEdgeStyle;rounded=0;orthogonalLoop=1;jettySize=auto;html=1;entryX=0.011;entryY=0.526;entryDx=0;entryDy=0;entryPerimeter=0;" edge="1" parent="1" source="TH7Lw-g1NXx3YXlk2tH6-20" target="TH7Lw-g1NXx3YXlk2tH6-9">
          <mxGeometry relative="1" as="geometry" />
        </mxCell>
        <mxCell id="TH7Lw-g1NXx3YXlk2tH6-40" value="" style="image;aspect=fixed;html=1;points=[];align=center;fontSize=12;image=img/lib/azure2/power_platform/PowerBI.svg;" vertex="1" parent="1">
          <mxGeometry x="705" y="302" width="51" height="68" as="geometry" />
        </mxCell>
        <mxCell id="TH7Lw-g1NXx3YXlk2tH6-41" value="" style="image;aspect=fixed;html=1;points=[];align=center;fontSize=12;image=img/lib/azure2/preview/Time_Series_Data_Sets.svg;" vertex="1" parent="1">
          <mxGeometry x="707" y="190" width="48" height="64" as="geometry" />
        </mxCell>
        <mxCell id="TH7Lw-g1NXx3YXlk2tH6-42" value="Medallion Architecture" style="text;html=1;align=center;verticalAlign=middle;whiteSpace=wrap;rounded=0;fontStyle=1" vertex="1" parent="1">
          <mxGeometry x="350" y="70" width="190" height="30" as="geometry" />
        </mxCell>
      </root>
    </mxGraphModel>
  </diagram>
</mxfile>
